# xmcd
#
# Track frame offsets: 
#        150
#        17544
#        31335
#        48107
#        60597
#        73978
#        89017
#        105502
#        138424
#        154348
#        173039
#        181174
#        197700
#        212530
#
# Disc length: 2996 seconds
#
# Revision: 24
# Processed by: cddbd v1.5.2PL0 Copyright (c) Steve Scherf et al.
# Submitted via: ExactAudioCopy v1.0b3
#
DISCID=bb0bb20e
DTITLE=White Stripes, The - Elephant
DYEAR=2003
DGENRE=Rock
TTITLE0=Seven Nation Army
TTITLE1=Black Math
TTITLE2=There's No Home For You Here
TTITLE3=I Just Don't Know What To Do With Myself
TTITLE4=In The Cold, Cold Night
TTITLE5=I Want To Be The Boy To Warm Your Mother's Heart
TTITLE6=You've Got Her In Your Pocket
TTITLE7=Ball And Biscuit
TTITLE8=The Hardest Button To Button
TTITLE9=Little Acorns
TTITLE10=Hypnotize
TTITLE11=The Air Near My Fingers
TTITLE12=Girl, You Have No Faith In Medicine
TTITLE13=Well It's True That We Love One Another
EXTD=
EXTT0=
EXTT1=
EXTT2=
EXTT3=
EXTT4=
EXTT5=
EXTT6=
EXTT7=
EXTT8=
EXTT9=
EXTT10=
EXTT11=
EXTT12=
EXTT13=
PLAYORDER=
